<svg width="22" height="18" viewBox="0 0 22 18" fill="none" xmlns="http://www.w3.org/2000/svg">
<path fill-rule="evenodd" clip-rule="evenodd" d="M6.72388 0H14.7925C18.5055 0 21.5164 2.38593 21.5164 5.32811V11.7218C21.5164 14.664 18.5055 17.0499 14.7925 17.0499H6.72388C3.01096 17.0499 0 14.664 0 11.7218V5.32811C0 2.38593 3.01096 0 6.72388 0ZM14.7925 15.4518C17.3879 15.4518 19.4992 13.7788 19.4992 11.7221V5.32839C19.4992 3.27174 17.3879 1.59871 14.7925 1.59871H6.72379C4.12837 1.59871 2.01707 3.27174 2.01707 5.32839V11.7221C2.01707 13.7788 4.12837 15.4518 6.72379 15.4518H14.7925Z" fill="white"/>
<path fill-rule="evenodd" clip-rule="evenodd" d="M5.37918 8.52494C5.37918 6.17098 7.78766 4.26245 10.7582 4.26245C13.7288 4.26245 16.1373 6.17098 16.1373 8.52494C16.1373 10.8789 13.7288 12.7874 10.7582 12.7874C7.78766 12.7874 5.37918 10.8789 5.37918 8.52494ZM7.39613 8.52498C7.39613 9.99341 8.90497 11.189 10.7581 11.189C12.6112 11.189 14.12 9.99341 14.12 8.52498C14.12 7.05549 12.6112 5.86092 10.7581 5.86092C8.90497 5.86092 7.39613 7.05549 7.39613 8.52498Z" fill="white"/>
<ellipse cx="16.5407" cy="3.94221" rx="0.716817" ry="0.567454" fill="white"/>
</svg>
