<svg width="25" height="16" viewBox="0 0 25 16" fill="none" xmlns="http://www.w3.org/2000/svg">
<path d="M24.1235 1.87495C23.2264 2.19292 22.2705 2.40369 21.2739 2.50602C22.2992 2.0114 23.0817 1.23413 23.4496 0.297263C22.4937 0.757777 21.4383 1.08306 20.3135 1.26459C19.4059 0.483662 18.1122 0 16.701 0C13.963 0 11.7587 1.79576 11.7587 3.99721C11.7587 4.31397 11.7919 4.61854 11.8733 4.90849C7.76174 4.74646 4.12362 3.15416 1.6796 0.728538C1.25292 1.32672 1.00263 2.0114 1.00263 2.74846C1.00263 4.13244 1.88465 5.35926 3.19938 6.06953C2.40481 6.05734 1.62532 5.87094 0.964941 5.57734C0.964941 5.58952 0.964941 5.60536 0.964941 5.62119C0.964941 7.56315 2.67922 9.17617 4.92723 9.54775C4.52467 9.63668 4.08592 9.67932 3.63059 9.67932C3.31397 9.67932 2.99433 9.6647 2.6943 9.6111C3.33508 11.1937 5.15339 12.3571 7.31546 12.3949C5.63284 13.4585 3.4964 14.0993 1.18356 14.0993C0.777984 14.0993 0.388992 14.0847 0 14.0445C2.19072 15.186 4.78701 15.8378 7.58685 15.8378C16.6875 15.8378 21.6629 9.74633 21.6629 4.46626C21.6629 4.2896 21.6554 4.11904 21.6448 3.9497C22.6264 3.38685 23.4511 2.6839 24.1235 1.87495Z" fill="white"/>
</svg>
